<mxfile host="app.diagrams.net" modified="2022-11-05T19:22:05.336Z" agent="5.0 (Macintosh; Intel Mac OS X 10_15_7) AppleWebKit/537.36 (KHTML, like Gecko) Chrome/107.0.0.0 Safari/537.36" etag="mxZz_e76bprmmpyiKF7g" version="20.5.2" type="github">
  <diagram id="F87NyDoe3_oXBkchKA5k" name="Page-1">
    <mxGraphModel dx="454" dy="699" grid="1" gridSize="10" guides="1" tooltips="1" connect="1" arrows="1" fold="1" page="1" pageScale="1" pageWidth="827" pageHeight="1169" math="0" shadow="0">
      <root>
        <mxCell id="0" />
        <mxCell id="1" parent="0" />
        <mxCell id="eZXeCWGOSdXEaXRIWJjE-1" value="Users" style="swimlane;fontStyle=0;childLayout=stackLayout;horizontal=1;startSize=26;fillColor=none;horizontalStack=0;resizeParent=1;resizeParentMax=0;resizeLast=0;collapsible=1;marginBottom=0;" vertex="1" parent="1">
          <mxGeometry x="350" y="104" width="140" height="182" as="geometry" />
        </mxCell>
        <mxCell id="eZXeCWGOSdXEaXRIWJjE-2" value="- user_id: int&#xa;" style="text;strokeColor=none;fillColor=none;align=left;verticalAlign=top;spacingLeft=4;spacingRight=4;overflow=hidden;rotatable=0;points=[[0,0.5],[1,0.5]];portConstraint=eastwest;" vertex="1" parent="eZXeCWGOSdXEaXRIWJjE-1">
          <mxGeometry y="26" width="140" height="26" as="geometry" />
        </mxCell>
        <mxCell id="eZXeCWGOSdXEaXRIWJjE-3" value="- firstName: string" style="text;strokeColor=none;fillColor=none;align=left;verticalAlign=top;spacingLeft=4;spacingRight=4;overflow=hidden;rotatable=0;points=[[0,0.5],[1,0.5]];portConstraint=eastwest;" vertex="1" parent="eZXeCWGOSdXEaXRIWJjE-1">
          <mxGeometry y="52" width="140" height="26" as="geometry" />
        </mxCell>
        <mxCell id="eZXeCWGOSdXEaXRIWJjE-4" value="- lastName: string" style="text;strokeColor=none;fillColor=none;align=left;verticalAlign=top;spacingLeft=4;spacingRight=4;overflow=hidden;rotatable=0;points=[[0,0.5],[1,0.5]];portConstraint=eastwest;" vertex="1" parent="eZXeCWGOSdXEaXRIWJjE-1">
          <mxGeometry y="78" width="140" height="26" as="geometry" />
        </mxCell>
        <mxCell id="eZXeCWGOSdXEaXRIWJjE-5" value="- email: string" style="text;strokeColor=none;fillColor=none;align=left;verticalAlign=top;spacingLeft=4;spacingRight=4;overflow=hidden;rotatable=0;points=[[0,0.5],[1,0.5]];portConstraint=eastwest;" vertex="1" parent="eZXeCWGOSdXEaXRIWJjE-1">
          <mxGeometry y="104" width="140" height="26" as="geometry" />
        </mxCell>
        <mxCell id="eZXeCWGOSdXEaXRIWJjE-6" value="- phone: string" style="text;strokeColor=none;fillColor=none;align=left;verticalAlign=top;spacingLeft=4;spacingRight=4;overflow=hidden;rotatable=0;points=[[0,0.5],[1,0.5]];portConstraint=eastwest;" vertex="1" parent="eZXeCWGOSdXEaXRIWJjE-1">
          <mxGeometry y="130" width="140" height="26" as="geometry" />
        </mxCell>
        <mxCell id="eZXeCWGOSdXEaXRIWJjE-7" value="- password: string" style="text;strokeColor=none;fillColor=none;align=left;verticalAlign=top;spacingLeft=4;spacingRight=4;overflow=hidden;rotatable=0;points=[[0,0.5],[1,0.5]];portConstraint=eastwest;" vertex="1" parent="eZXeCWGOSdXEaXRIWJjE-1">
          <mxGeometry y="156" width="140" height="26" as="geometry" />
        </mxCell>
        <mxCell id="eZXeCWGOSdXEaXRIWJjE-8" value="Restaurants" style="swimlane;fontStyle=0;childLayout=stackLayout;horizontal=1;startSize=26;fillColor=none;horizontalStack=0;resizeParent=1;resizeParentMax=0;resizeLast=0;collapsible=1;marginBottom=0;" vertex="1" parent="1">
          <mxGeometry x="600" y="234" width="140" height="208" as="geometry" />
        </mxCell>
        <mxCell id="eZXeCWGOSdXEaXRIWJjE-9" value="- restaurant_id : int" style="text;strokeColor=none;fillColor=none;align=left;verticalAlign=top;spacingLeft=4;spacingRight=4;overflow=hidden;rotatable=0;points=[[0,0.5],[1,0.5]];portConstraint=eastwest;" vertex="1" parent="eZXeCWGOSdXEaXRIWJjE-8">
          <mxGeometry y="26" width="140" height="26" as="geometry" />
        </mxCell>
        <mxCell id="eZXeCWGOSdXEaXRIWJjE-10" value="+ name : string" style="text;strokeColor=none;fillColor=none;align=left;verticalAlign=top;spacingLeft=4;spacingRight=4;overflow=hidden;rotatable=0;points=[[0,0.5],[1,0.5]];portConstraint=eastwest;" vertex="1" parent="eZXeCWGOSdXEaXRIWJjE-8">
          <mxGeometry y="52" width="140" height="26" as="geometry" />
        </mxCell>
        <mxCell id="eZXeCWGOSdXEaXRIWJjE-11" value="+ adress: string" style="text;strokeColor=none;fillColor=none;align=left;verticalAlign=top;spacingLeft=4;spacingRight=4;overflow=hidden;rotatable=0;points=[[0,0.5],[1,0.5]];portConstraint=eastwest;" vertex="1" parent="eZXeCWGOSdXEaXRIWJjE-8">
          <mxGeometry y="78" width="140" height="26" as="geometry" />
        </mxCell>
        <mxCell id="eZXeCWGOSdXEaXRIWJjE-12" value="+ postCode: string" style="text;strokeColor=none;fillColor=none;align=left;verticalAlign=top;spacingLeft=4;spacingRight=4;overflow=hidden;rotatable=0;points=[[0,0.5],[1,0.5]];portConstraint=eastwest;" vertex="1" parent="eZXeCWGOSdXEaXRIWJjE-8">
          <mxGeometry y="104" width="140" height="26" as="geometry" />
        </mxCell>
        <mxCell id="eZXeCWGOSdXEaXRIWJjE-13" value="+ city: string" style="text;strokeColor=none;fillColor=none;align=left;verticalAlign=top;spacingLeft=4;spacingRight=4;overflow=hidden;rotatable=0;points=[[0,0.5],[1,0.5]];portConstraint=eastwest;" vertex="1" parent="eZXeCWGOSdXEaXRIWJjE-8">
          <mxGeometry y="130" width="140" height="26" as="geometry" />
        </mxCell>
        <mxCell id="eZXeCWGOSdXEaXRIWJjE-14" value="+ category: string" style="text;strokeColor=none;fillColor=none;align=left;verticalAlign=top;spacingLeft=4;spacingRight=4;overflow=hidden;rotatable=0;points=[[0,0.5],[1,0.5]];portConstraint=eastwest;" vertex="1" parent="eZXeCWGOSdXEaXRIWJjE-8">
          <mxGeometry y="156" width="140" height="26" as="geometry" />
        </mxCell>
        <mxCell id="eZXeCWGOSdXEaXRIWJjE-15" value="+ image : file" style="text;strokeColor=none;fillColor=none;align=left;verticalAlign=top;spacingLeft=4;spacingRight=4;overflow=hidden;rotatable=0;points=[[0,0.5],[1,0.5]];portConstraint=eastwest;" vertex="1" parent="eZXeCWGOSdXEaXRIWJjE-8">
          <mxGeometry y="182" width="140" height="26" as="geometry" />
        </mxCell>
        <mxCell id="eZXeCWGOSdXEaXRIWJjE-16" value="Customers" style="swimlane;fontStyle=0;childLayout=stackLayout;horizontal=1;startSize=26;fillColor=none;horizontalStack=0;resizeParent=1;resizeParentMax=0;resizeLast=0;collapsible=1;marginBottom=0;" vertex="1" parent="1">
          <mxGeometry x="120" y="254" width="140" height="156" as="geometry" />
        </mxCell>
        <mxCell id="eZXeCWGOSdXEaXRIWJjE-17" value="- adress: string" style="text;strokeColor=none;fillColor=none;align=left;verticalAlign=top;spacingLeft=4;spacingRight=4;overflow=hidden;rotatable=0;points=[[0,0.5],[1,0.5]];portConstraint=eastwest;" vertex="1" parent="eZXeCWGOSdXEaXRIWJjE-16">
          <mxGeometry y="26" width="140" height="26" as="geometry" />
        </mxCell>
        <mxCell id="eZXeCWGOSdXEaXRIWJjE-18" value="- postCode: string" style="text;strokeColor=none;fillColor=none;align=left;verticalAlign=top;spacingLeft=4;spacingRight=4;overflow=hidden;rotatable=0;points=[[0,0.5],[1,0.5]];portConstraint=eastwest;" vertex="1" parent="eZXeCWGOSdXEaXRIWJjE-16">
          <mxGeometry y="52" width="140" height="26" as="geometry" />
        </mxCell>
        <mxCell id="eZXeCWGOSdXEaXRIWJjE-19" value="- city: string" style="text;strokeColor=none;fillColor=none;align=left;verticalAlign=top;spacingLeft=4;spacingRight=4;overflow=hidden;rotatable=0;points=[[0,0.5],[1,0.5]];portConstraint=eastwest;" vertex="1" parent="eZXeCWGOSdXEaXRIWJjE-16">
          <mxGeometry y="78" width="140" height="26" as="geometry" />
        </mxCell>
        <mxCell id="eZXeCWGOSdXEaXRIWJjE-20" value="- birthday: date" style="text;strokeColor=none;fillColor=none;align=left;verticalAlign=top;spacingLeft=4;spacingRight=4;overflow=hidden;rotatable=0;points=[[0,0.5],[1,0.5]];portConstraint=eastwest;" vertex="1" parent="eZXeCWGOSdXEaXRIWJjE-16">
          <mxGeometry y="104" width="140" height="26" as="geometry" />
        </mxCell>
        <mxCell id="eZXeCWGOSdXEaXRIWJjE-21" value="- credit_card: string" style="text;strokeColor=none;fillColor=none;align=left;verticalAlign=top;spacingLeft=4;spacingRight=4;overflow=hidden;rotatable=0;points=[[0,0.5],[1,0.5]];portConstraint=eastwest;" vertex="1" parent="eZXeCWGOSdXEaXRIWJjE-16">
          <mxGeometry y="130" width="140" height="26" as="geometry" />
        </mxCell>
        <mxCell id="eZXeCWGOSdXEaXRIWJjE-22" value="Administrator" style="swimlane;fontStyle=0;childLayout=stackLayout;horizontal=1;startSize=26;fillColor=none;horizontalStack=0;resizeParent=1;resizeParentMax=0;resizeLast=0;collapsible=1;marginBottom=0;" vertex="1" parent="1">
          <mxGeometry x="580" y="34" width="140" height="78" as="geometry" />
        </mxCell>
        <mxCell id="eZXeCWGOSdXEaXRIWJjE-23" value="- admin_id: int&#xa;" style="text;strokeColor=none;fillColor=none;align=left;verticalAlign=top;spacingLeft=4;spacingRight=4;overflow=hidden;rotatable=0;points=[[0,0.5],[1,0.5]];portConstraint=eastwest;" vertex="1" parent="eZXeCWGOSdXEaXRIWJjE-22">
          <mxGeometry y="26" width="140" height="26" as="geometry" />
        </mxCell>
        <mxCell id="eZXeCWGOSdXEaXRIWJjE-24" value="- admin_Name: string" style="text;strokeColor=none;fillColor=none;align=left;verticalAlign=top;spacingLeft=4;spacingRight=4;overflow=hidden;rotatable=0;points=[[0,0.5],[1,0.5]];portConstraint=eastwest;" vertex="1" parent="eZXeCWGOSdXEaXRIWJjE-22">
          <mxGeometry y="52" width="140" height="26" as="geometry" />
        </mxCell>
        <mxCell id="eZXeCWGOSdXEaXRIWJjE-25" value="" style="endArrow=block;endSize=16;endFill=0;html=1;rounded=0;edgeStyle=orthogonalEdgeStyle;entryX=0.999;entryY=0.119;entryDx=0;entryDy=0;entryPerimeter=0;exitX=0.006;exitY=0.231;exitDx=0;exitDy=0;exitPerimeter=0;" edge="1" parent="1" source="eZXeCWGOSdXEaXRIWJjE-12" target="eZXeCWGOSdXEaXRIWJjE-5">
          <mxGeometry width="160" relative="1" as="geometry">
            <mxPoint x="570" y="404" as="sourcePoint" />
            <mxPoint x="560" y="334" as="targetPoint" />
          </mxGeometry>
        </mxCell>
        <mxCell id="eZXeCWGOSdXEaXRIWJjE-26" value="" style="endArrow=block;endSize=16;endFill=0;html=1;rounded=0;entryX=0.008;entryY=0.995;entryDx=0;entryDy=0;edgeStyle=orthogonalEdgeStyle;entryPerimeter=0;" edge="1" parent="1" source="eZXeCWGOSdXEaXRIWJjE-19" target="eZXeCWGOSdXEaXRIWJjE-4">
          <mxGeometry x="0.0078" y="-20" width="160" relative="1" as="geometry">
            <mxPoint x="280" y="394" as="sourcePoint" />
            <mxPoint x="530" y="314" as="targetPoint" />
            <Array as="points">
              <mxPoint x="320" y="345" />
              <mxPoint x="320" y="208" />
            </Array>
            <mxPoint as="offset" />
          </mxGeometry>
        </mxCell>
        <mxCell id="eZXeCWGOSdXEaXRIWJjE-27" value="Reservations" style="swimlane;fontStyle=0;childLayout=stackLayout;horizontal=1;startSize=26;fillColor=none;horizontalStack=0;resizeParent=1;resizeParentMax=0;resizeLast=0;collapsible=1;marginBottom=0;strokeWidth=1;" vertex="1" parent="1">
          <mxGeometry x="350" y="424" width="160" height="130" as="geometry" />
        </mxCell>
        <mxCell id="eZXeCWGOSdXEaXRIWJjE-28" value="- reservation_id : int" style="text;strokeColor=none;fillColor=none;align=left;verticalAlign=top;spacingLeft=4;spacingRight=4;overflow=hidden;rotatable=0;points=[[0,0.5],[1,0.5]];portConstraint=eastwest;strokeWidth=0;" vertex="1" parent="eZXeCWGOSdXEaXRIWJjE-27">
          <mxGeometry y="26" width="160" height="26" as="geometry" />
        </mxCell>
        <mxCell id="eZXeCWGOSdXEaXRIWJjE-29" value="- reservation_name : string" style="text;strokeColor=none;fillColor=none;align=left;verticalAlign=top;spacingLeft=4;spacingRight=4;overflow=hidden;rotatable=0;points=[[0,0.5],[1,0.5]];portConstraint=eastwest;strokeWidth=0;" vertex="1" parent="eZXeCWGOSdXEaXRIWJjE-27">
          <mxGeometry y="52" width="160" height="26" as="geometry" />
        </mxCell>
        <mxCell id="eZXeCWGOSdXEaXRIWJjE-30" value="- date_reservation : date" style="text;strokeColor=none;fillColor=none;align=left;verticalAlign=top;spacingLeft=4;spacingRight=4;overflow=hidden;rotatable=0;points=[[0,0.5],[1,0.5]];portConstraint=eastwest;strokeWidth=0;" vertex="1" parent="eZXeCWGOSdXEaXRIWJjE-27">
          <mxGeometry y="78" width="160" height="26" as="geometry" />
        </mxCell>
        <mxCell id="eZXeCWGOSdXEaXRIWJjE-31" value="- payment_customer : string" style="text;strokeColor=none;fillColor=none;align=left;verticalAlign=top;spacingLeft=4;spacingRight=4;overflow=hidden;rotatable=0;points=[[0,0.5],[1,0.5]];portConstraint=eastwest;strokeWidth=0;" vertex="1" parent="eZXeCWGOSdXEaXRIWJjE-27">
          <mxGeometry y="104" width="160" height="26" as="geometry" />
        </mxCell>
        <mxCell id="eZXeCWGOSdXEaXRIWJjE-32" value="" style="endArrow=block;endSize=16;endFill=0;html=1;rounded=0;edgeStyle=orthogonalEdgeStyle;entryX=1;entryY=0.5;entryDx=0;entryDy=0;exitX=0;exitY=0.5;exitDx=0;exitDy=0;" edge="1" parent="1" source="eZXeCWGOSdXEaXRIWJjE-23" target="eZXeCWGOSdXEaXRIWJjE-3">
          <mxGeometry width="160" relative="1" as="geometry">
            <mxPoint x="610.8399999999999" y="354.006" as="sourcePoint" />
            <mxPoint x="499.8600000000001" y="221.09400000000005" as="targetPoint" />
          </mxGeometry>
        </mxCell>
        <mxCell id="eZXeCWGOSdXEaXRIWJjE-33" value="" style="endArrow=none;html=1;rounded=0;exitX=0.999;exitY=0.012;exitDx=0;exitDy=0;exitPerimeter=0;entryX=-0.016;entryY=0.781;entryDx=0;entryDy=0;entryPerimeter=0;" edge="1" parent="1" source="eZXeCWGOSdXEaXRIWJjE-21" target="eZXeCWGOSdXEaXRIWJjE-13">
          <mxGeometry width="50" height="50" relative="1" as="geometry">
            <mxPoint x="370" y="414" as="sourcePoint" />
            <mxPoint x="420" y="364" as="targetPoint" />
          </mxGeometry>
        </mxCell>
        <mxCell id="eZXeCWGOSdXEaXRIWJjE-34" value="&lt;font style=&quot;font-size: 18px;&quot;&gt;*&lt;/font&gt;" style="edgeLabel;html=1;align=center;verticalAlign=middle;resizable=0;points=[];" vertex="1" connectable="0" parent="eZXeCWGOSdXEaXRIWJjE-33">
          <mxGeometry x="-0.8498" y="1" relative="1" as="geometry">
            <mxPoint x="-15" y="1" as="offset" />
          </mxGeometry>
        </mxCell>
        <mxCell id="eZXeCWGOSdXEaXRIWJjE-35" value="*" style="edgeLabel;html=1;align=center;verticalAlign=middle;resizable=0;points=[];fontSize=18;" vertex="1" connectable="0" parent="eZXeCWGOSdXEaXRIWJjE-33">
          <mxGeometry x="0.9468" y="1" relative="1" as="geometry">
            <mxPoint as="offset" />
          </mxGeometry>
        </mxCell>
        <mxCell id="eZXeCWGOSdXEaXRIWJjE-36" value="&lt;font style=&quot;font-size: 14px;&quot;&gt;Reserve&lt;/font&gt;" style="edgeLabel;html=1;align=center;verticalAlign=middle;resizable=0;points=[];fontSize=14;" vertex="1" connectable="0" parent="eZXeCWGOSdXEaXRIWJjE-33">
          <mxGeometry x="-0.0995" y="1" relative="1" as="geometry">
            <mxPoint x="16" y="-4" as="offset" />
          </mxGeometry>
        </mxCell>
        <mxCell id="eZXeCWGOSdXEaXRIWJjE-37" value="" style="endArrow=none;dashed=1;html=1;dashPattern=1 3;strokeWidth=2;rounded=0;" edge="1" parent="1">
          <mxGeometry width="50" height="50" relative="1" as="geometry">
            <mxPoint x="430" y="424" as="sourcePoint" />
            <mxPoint x="430" y="384" as="targetPoint" />
          </mxGeometry>
        </mxCell>
      </root>
    </mxGraphModel>
  </diagram>
</mxfile>
